<?xml version="1.0" standalone="no"?>
<!DOCTYPE svg PUBLIC "-//W3C//DTD SVG 20010904//EN"
 "http://www.w3.org/TR/2001/REC-SVG-20010904/DTD/svg10.dtd">
<svg version="1.0" xmlns="http://www.w3.org/2000/svg"
 width="672.000000pt" height="672.000000pt" viewBox="0 0 672.000000 672.000000"
 preserveAspectRatio="xMidYMid meet">
<metadata>
Created by potrace 1.11, written by Peter Selinger 2001-2013
</metadata>
<g transform="translate(0.000000,672.000000) scale(0.100000,-0.100000)"
fill="#000000" stroke="none">
<path d="M2435 5925 c-473 -79 -861 -144 -862 -144 -7 -2 -2 -50 5 -54 4 -3
396 -69 872 -147 l865 -142 860 144 860 143 3 27 c3 22 -2 28 -20 33 -26 6
-1720 286 -1722 284 0 0 -388 -65 -861 -144z"/>
<path d="M454 5576 c-48 -36 -55 -31 996 -717 732 -478 1007 -663 1013 -680 4
-13 143 -887 307 -1943 165 -1055 303 -1922 306 -1927 9 -15 61 -10 68 7 9 24
7 4807 -3 4822 -5 9 -440 84 -1317 227 -720 118 -1319 216 -1331 218 -13 2
-30 -1 -39 -7z"/>
<path d="M4812 5370 c-728 -119 -1327 -221 -1333 -227 -5 -5 -8 -914 -7 -2424
l3 -2414 29 0 c16 0 32 7 37 15 4 8 141 870 303 1915 163 1045 301 1916 306
1935 10 33 76 78 1020 694 867 565 1010 662 1010 682 0 19 -28 48 -42 43 -2
-1 -598 -99 -1326 -219z"/>
<path d="M277 5114 c-26 -27 12 -76 639 -830 l647 -775 508 -1267 c280 -696
515 -1269 521 -1274 29 -18 58 1 58 38 0 24 -487 2909 -496 2936 -6 21 -1809
1170 -1844 1176 -14 2 -28 0 -33 -4z"/>
<path d="M5378 4542 c-664 -423 -909 -584 -917 -602 -9 -22 -501 -2918 -501
-2948 0 -7 11 -18 25 -24 21 -9 29 -9 40 3 7 8 239 577 515 1264 276 688 509
1262 518 1276 9 14 303 369 652 788 349 419 636 768 638 777 5 22 -17 44 -42
43 -11 0 -429 -260 -928 -577z"/>
</g>
</svg>
